HIERARCHY
ROOT Hips
{
  OFFSET 90.7885 88.945 -76.2838
  CHANNELS 6 Xposition Yposition Zposition Zrotation Xrotation Yrotation
  JOINT LeftUpLeg
  {
    OFFSET 8.64259 1.95398 -2.38835
    CHANNELS 3 Zrotation Xrotation Yrotation
    JOINT LeftLeg
    {
      OFFSET 43.7702 0 0
      CHANNELS 3 Zrotation Xrotation Yrotation
      JOINT LeftFoot
      {
        OFFSET 40.6238 0 0
        CHANNELS 3 Zrotation Xrotation Yrotation
        JOINT LeftToeBase
        {
          OFFSET 12.7242 0 0
          CHANNELS 3 Zrotation Xrotation Yrotation
          End Site
          {
            OFFSET 0 0 0
          }
        }
      }
    }
  }
  JOINT RightUpLeg
  {
    OFFSET -8.2249 1.95398 -2.59336
    CHANNELS 3 Zrotation Xrotation Yrotation
    JOINT RightLeg
    {
      OFFSET 43.5653 0 0
      CHANNELS 3 Zrotation Xrotation Yrotation
      JOINT RightFoot
      {
        OFFSET 40.6238 0 0
        CHANNELS 3 Zrotation Xrotation Yrotation
        JOINT RightToeBase
        {
          OFFSET 12.7242 0 0
          CHANNELS 3 Zrotation Xrotation Yrotation
          End Site
          {
            OFFSET 0 0 0
          }
        }
      }
    }
  }
  JOINT Spine
  {
    OFFSET 0.165834 0.87714 6.61349
    CHANNELS 3 Zrotation Xrotation Yrotation
    JOINT Spine1
    {
      OFFSET 7.38963 1.71661e-005 0
      CHANNELS 3 Zrotation Xrotation Yrotation
      JOINT Spine2
      {
        OFFSET 11.9445 1.14441e-005 0
        CHANNELS 3 Zrotation Xrotation Yrotation
        JOINT Spine3
        {
          OFFSET 14.7254 4.19617e-005 0
          CHANNELS 3 Zrotation Xrotation Yrotation
          JOINT Spine4
          {
            OFFSET 10.9679 0 0
            CHANNELS 3 Zrotation Xrotation Yrotation
            JOINT RightShoulder
            {
              OFFSET 2.46616 -1.6653 3.69651
              CHANNELS 3 Zrotation Xrotation Yrotation
              JOINT RightArm
              {
                OFFSET 13.0012 0 0
                CHANNELS 3 Zrotation Xrotation Yrotation
                JOINT RightForeArm
                {
                  OFFSET 28.7848 1.52588e-005 0
                  CHANNELS 3 Zrotation Xrotation Yrotation
                  JOINT RightHand
                  {
                    OFFSET 26.5688 1.52588e-005 0
                    CHANNELS 3 Zrotation Xrotation Yrotation
                    End Site
                    {
                      OFFSET 0 0 0
                    }
                  }
                }
              }
            }
            JOINT LeftShoulder
            {
              OFFSET 2.38034 -1.29275 -3.7523
              CHANNELS 3 Zrotation Xrotation Yrotation
              JOINT LeftArm
              {
                OFFSET 16.3182 6.10352e-005 0
                CHANNELS 3 Zrotation Xrotation Yrotation
                JOINT LeftForeArm
                {
                  OFFSET 27.0901 0 0
                  CHANNELS 3 Zrotation Xrotation Yrotation
                  JOINT LeftHand
                  {
                    OFFSET 24.5451 1.52588e-005 0
                    CHANNELS 3 Zrotation Xrotation Yrotation
                    End Site
                    {
                      OFFSET 0 0 0
                    }
                  }
                }
              }
            }
            JOINT Neck
            {
              OFFSET 5.0226 -0.0266342 0
              CHANNELS 3 Zrotation Xrotation Yrotation
              JOINT Head
              {
                OFFSET 6.69363 2.86102e-005 0
                CHANNELS 3 Zrotation Xrotation Yrotation
                End Site
                {
                  OFFSET 0 0 0
                }
              }
            }
          }
        }
      }
    }
  }
}
MOTION
Frames:	7
Frame Time:	0.0416667
106.299 82.5816 215.839 -89.207 48.5402 -91.7379 -168.957 -6.40832 92.3916 -48.7447 -0.232074 -5.38114 103.448 14.5223 -10.5739 45.1911 0.274123 -4.35521 174.794 51.7395 94.778 -55.7728 -24.2318 0.943378 68.5166 -4.36622 -3.33777 13.7783 -2.66987 7.26283 -0.917651 9.58367 -90.0146 7.70476 -1.83842 0.0592549 -3.96489 -1.83402 0.140133 -26.5099 -1.7712 -0.496194 -6.49722 -1.7712 -0.496186 93.1462 -27.6969 -101.153 40.5797 -16.7809 17.3246 -41.8448 -12.6385 -75.7748 -34.0115 -1.53699 -7.86799 -90.6694 -47.3514 77.1134 -11.2759 7.20151 -16.2827 32.3123 -12.946 -97.0603 -9.07805 0.779087 -19.1336 34.8157 4.8244 -4.83396 -7.47581 6.53484 3.58233 
110.722 83.1514 219.112 -92.8806 50.2857 -89.3421 -167.738 -2.96598 91.6001 -54.154 -3.80241 -6.23509 104.878 13.7925 -12.9769 44.1121 0.515537 -4.49738 175.03 49.7398 95.1713 -52.5205 -19.0766 0.83381 71.2473 -5.559 -0.531823 16.9387 -1.27628 4.60039 -0.547797 9.97745 -89.7898 6.92179 -1.00415 0.459121 -4.74887 -0.982968 0.502879 -27.2871 -1.09571 0.136085 -7.27443 -1.09571 0.13608 92.7597 -27.0444 -102.186 38.5567 -8.0722 10.7074 -31.2922 -4.99514 -81.055 -39.7214 -1.6668 -4.55697 -90.3382 -50.0925 78.246 -19.2067 15.6352 3.08823 33.8755 -11.6851 -91.2906 -7.61249 0.539598 -17.9256 32.8759 3.58676 -6.44393 -5.36592 6.01409 3.87779 
114.402 84.23 220.699 -95.7247 50.1003 -87.5569 -167.037 -0.494513 92.6572 -56.5275 -3.19324 -5.9041 100.882 12.9845 -11.9707 44.7454 0.2672 -4.19052 175.751 49.0791 94.5028 -56.0115 -13.4502 0.190966 69.6823 -5.17352 -2.77995 14.5554 -2.37131 6.73452 -0.158332 10.1199 -89.814 6.63438 -0.236963 0.37537 -5.03661 -0.220194 0.385428 -27.5716 -0.338831 0.286794 -7.55901 -0.33882 0.286797 92.7135 -25.3619 -102.858 35.033 -1.39938 11.9324 -37.0794 -4.87129 -90.7959 -35.7478 -0.873439 -8.47005 -89.7134 -50.8499 79.3335 -25.8523 20.6851 23.2384 29.7989 -14.7964 -93.4346 -6.13748 0.323225 -16.9079 29.3896 2.19456 -5.70743 -2.91575 4.29882 3.68682 
117.378 85.4625 221.403 -95.6716 46.2791 -87.6807 -168.022 2.34156 93.5986 -56.5734 0.0161303 -3.85023 100.374 13.5092 -10.8397 40.8764 0.842311 -4.17539 176.001 49.3875 91.6726 -60.1163 -15.3927 -0.347766 67.8919 -4.26768 -2.66862 16.2089 -1.3773 4.85483 -0.071403 10.1058 -89.8808 6.66228 -0.0917396 0.238125 -5.00869 -0.0811567 0.241924 -27.5437 -0.159081 0.199544 -7.53105 -0.159046 0.199546 92.477 -25.4792 -103.327 31.7116 0.718476 14.2397 -42.0255 -1.65245 -91.3651 -33.2914 -1.20475 -8.29301 -88.0733 -46.9641 81.0407 -31.8037 23.6732 35.8734 30.4656 -18.1193 -95.3307 -3.01906 -0.0247404 -16.2197 27.1521 -0.0762095 -7.41735 -1.58018 2.71246 4.48784 
119.388 86.6227 221.154 -96.5672 45.0217 -87.2398 -169.285 1.54408 93.9273 -54.0786 -1.83065 -3.08135 99.9771 12.8763 -12.0095 38.3054 -0.125582 -1.73594 177.714 47.8159 89.3538 -61.861 -17.3511 -1.3526 66.6527 -3.76099 -3.29038 16.9265 -2.54573 6.89981 0.191086 10.0264 -89.9819 6.82089 0.389383 0.0201281 -4.84999 0.389888 0.0029587 -27.3855 0.365331 0.13622 -7.3729 0.365319 0.136209 93.2415 -24.2407 -102.096 30.481 2.72882 16.2793 -55.9189 -6.84831 -99.4064 -29.276 -2.88267 -4.55518 -88.1809 -46.0851 80.7023 -33.4577 23.2951 42.7909 32.2801 -19.0895 -95.1445 -2.86458 -0.0417346 -15.7797 24.685 -1.22209 -5.93053 -0.768783 0.953866 3.29216 
120.916 87.6079 220.183 -96.6124 45.6506 -86.9161 -169.794 0.873515 94.745 -51.3013 -1.01478 -2.56691 98.1675 12.6467 -10.8265 37.5208 -1.04211 0.0371044 178.843 46.4893 88.8338 -61.8033 -17.0099 -1.94717 67.1033 -4.05405 -3.04282 17.7465 -2.48458 6.73473 0.319751 9.83483 -89.9603 7.20418 0.655677 0.0481982 -4.46659 0.657179 0.0192773 -27.0029 0.610873 0.243034 -6.9903 0.610884 0.243034 92.9381 -24.278 -102.751 31.2729 0.770424 16.6913 -58.0775 -7.47016 -98.752 -27.8134 -3.02342 -4.07491 -87.7296 -46.7695 81.5398 -32.1712 19.6986 45.2413 35.8129 -18.8814 -95.2922 -1.80079 -0.142585 -14.9587 23.1276 -1.26472 -5.37802 0.0332031 0.650717 2.62122 
121.926 88.4979 218.502 -96.9391 46.3396 -86.5706 -169.78 -1.1833 96.0136 -47.4367 -0.0991509 -2.48826 96.5226 12.3286 -10.0415 37.279 -1.47319 0.833925 178.914 44.6267 88.3338 -61.1815 -15.8966 -2.16355 68.5219 -4.78371 -2.48537 18.8237 -2.29389 6.30435 0.322621 9.75574 -89.9411 7.36217 0.669694 0.0841844 -4.3086 0.67276 0.0546175 -26.8449 0.61343 0.281571 -6.8323 0.613443 0.281568 92.8455 -24.1097 -103.017 33.7798 -1.59082 17.3273 -53.2599 -3.81034 -96.773 -26.6349 -2.30252 -6.08439 -87.5684 -48.0292 82.0221 -30.0683 18.124 41.7894 35.2256 -17.1593 -94.311 -1.89345 -0.133586 -14.6422 23.9504 -1.05323 -4.48352 -0.951108 0.559812 2.35391 
